#!OML:ASF E:\emotionWalksFemale\Project 1\Capture day 1\Session 1\Female1.ASF
:FULLY-SPECIFIED
:DEGREES
1182
root 12.7773 14.1689 3.50871 174.39 -3.33307 186.152
lowerback 10.2491 3.56984 -2.08378
upperback -2.38407 4.30726 -1.71794
thorax -8.30722 2.12845 -1.3938
lowerneck -2.7067 -5.55457 -8.94026
upperneck -2.92719 -7.2675 9.58561
head 0.290921 -3.65031 4.66201
rclavicle 1.59028e-014 -1.59028e-014
rhumerus -20.6146 29.6443 -95.749
rradius 35.3873
rwrist 17.5583
rhand 6.50204 -46.5499
rfingers 7.12502
rthumb 31.8016 -73.7955
lclavicle 1.59028e-014 -1.59028e-014
lhumerus -43.169 22.3577 65.0906
lradius 33.9233
lwrist -11.9928
lhand -7.60955 -32.6425
lfingers 7.12502
lthumb 18.2845 -3.48188
rfemur -4.76511 -0.472712 28.9634
rtibia 50.5368
rfoot -36.0594 -22.8852
rtoes -2.83643
lfemur -27.5742 -20.3357 4.89655
ltibia 46.5035
lfoot -20.9057 10.7436
ltoes -42.4635
1183
root 12.7173 14.1649 3.47686 174.82 -3.73025 186.028
lowerback 10.2438 3.49245 -2.24839
upperback -2.39925 4.18216 -1.70673
thorax -8.33419 2.07582 -1.26918
lowerneck -3.33594 -5.61854 -8.8919
upperneck -2.84753 -7.31666 9.39754
head 0.423977 -3.66379 4.56036
rclavicle -5.86415e-015 -9.38264e-014
rhumerus -20.4109 29.4809 -95.5164
rradius 35.1962
rwrist 17.4826
rhand 5.94903 -46.4996
rfingers 7.12502
rthumb 31.2747 -73.8484
lclavicle -5.86415e-015 -9.38264e-014
lhumerus -42.7692 22.5075 65.7025
lradius 33.8952
lwrist -12.4099
lhand -6.73089 -32.419
lfingers 7.12502
lthumb 19.1296 -3.33981
rfemur -5.21668 -0.326684 28.6631
rtibia 50.8513
rfoot -35.7347 -23.4508
rtoes -4.07488
lfemur -28.6995 -19.2772 4.49497
ltibia 47.4362
lfoot -20.9538 9.16774
ltoes -42.9869
1184
root 12.6543 14.1526 3.44617 175.141 -4.16802 185.956
lowerback 10.2549 3.38312 -2.32193
upperback -2.28706 4.02842 -1.6992
thorax -8.22497 2.00483 -1.18862
lowerneck -4.04863 -5.67953 -8.91168
upperneck -2.87568 -7.3597 9.42103
head 0.548744 -3.6775 4.54845
rclavicle 4.07509e-014 -2.22639e-014
rhumerus -19.9767 29.4468 -95.2455
rradius 34.9338
rwrist 17.436
rhand 5.10641 -46.4409
rfingers 7.12502
rthumb 30.4715 -73.9418
lclavicle 4.07509e-014 -2.22639e-014
lhumerus -42.1231 22.7334 66.2107
lradius 33.7161
lwrist -13.0813
lhand -5.79685 -32.1548
lfingers 7.12502
lthumb 20.0276 -3.16692
rfemur -5.53379 -0.211924 28.4017
rtibia 51.1774
rfoot -35.7598 -23.8652
rtoes -4.31494
lfemur -29.7636 -18.3211 4.08271
ltibia 48.3961
lfoot -20.887 8.30791
ltoes -43.1226
1185
root 12.5895 14.1443 3.41668 175.387 -4.65431 185.785
lowerback 10.2417 3.39588 -2.29838
upperback -2.32729 4.04059 -1.77021
thorax -8.2539 2.00687 -1.27981
lowerneck -3.53157 -5.78428 -9.09959
upperneck -3.44421 -7.49941 9.92737
head 0.288073 -3.76239 4.30567
rclavicle 3.926e-014 -2.22639e-014
rhumerus -20.0229 28.8713 -94.9898
rradius 34.7483
rwrist 17.2731
rhand 5.52092 -46.703
rfingers 7.12502
rthumb 30.8667 -74.1298
lclavicle 3.926e-014 -2.22639e-014
lhumerus -41.7385 22.3008 66.8412
lradius 33.5596
lwrist -13.4964
lhand -5.0137 -32.4399
lfingers 7.12502
lthumb 20.7802 -3.53264
rfemur -5.6915 -0.279683 27.9705
rtibia 51.4368
rfoot -35.9544 -24.006
rtoes -4.04235
lfemur -30.6886 -17.698 3.52674
ltibia 49.2736
lfoot -20.697 8.11367
ltoes -43.102
1186
root 12.5259 14.143 3.38885 175.671 -5.05182 185.587
lowerback 10.2657 3.457 -2.34963
upperback -2.38714 4.10068 -1.87353
thorax -8.32889 2.03373 -1.3755
lowerneck -3.01088 -5.88171 -9.11107
upperneck -3.97926 -7.64979 9.99305
head 0.06439 -3.85614 4.34948
rclavicle -2.46493e-014 -3.49861e-014
rhumerus -20.0448 28.0323 -94.7239
rradius 34.5897
rwrist 17.2181
rhand 7.25676 -47.2595
rfingers 7.12502
rthumb 32.5201 -74.3597
lclavicle -2.46493e-014 -3.49861e-014
lhumerus -41.3322 21.6971 67.4975
lradius 33.5323
lwrist -13.4613
lhand -4.24418 -32.6732
lfingers 7.12502
lthumb 21.5195 -3.84868
rfemur -5.86283 -0.266529 27.5288
rtibia 51.6164
rfoot -36.1149 -24.0823
rtoes -3.67454
lfemur -31.5405 -17.2061 3.0011
ltibia 50.0294
lfoot -20.67 7.59823
ltoes -43.6462
1187
root 12.4621 14.137 3.36122 175.798 -5.44642 185.578
lowerback 10.5601 3.46964 -2.2127
upperback -2.41581 4.12216 -1.9051
thorax -8.51746 2.03479 -1.5107
lowerneck -2.94722 -5.95191 -9.22636
upperneck -4.08753 -7.74265 10.1565
head 0.0431277 -3.90589 4.41823
rclavicle -4.42793e-014 5.88403e-014
rhumerus -20.1341 27.1336 -94.4842
rradius 34.5031
rwrist 17.4438
rhand 6.99227 -47.1974
rfingers 7.12502
rthumb 32.2683 -74.3491
lclavicle -4.42793e-014 5.88403e-014
lhumerus -40.8687 21.306 68.0359
lradius 33.462
lwrist -13.483
lhand -3.31728 -33.0744
lfingers 7.12502
lthumb 22.4094 -4.35426
rfemur -5.84832 -0.178728 27.3421
rtibia 51.688
rfoot -36.3077 -24.2936
rtoes -3.25626
lfemur -32.1799 -16.8676 2.69906
ltibia 50.641
lfoot -20.7735 6.69912
ltoes -42.8193
1188
root 12.3974 14.1268 3.33103 175.824 -5.91952 185.64
lowerback 10.8355 3.43656 -2.00168
upperback -2.35374 4.10616 -1.8609
thorax -8.59684 2.01774 -1.59443
lowerneck -2.8438 -6.01079 -9.47419
upperneck -4.31593 -7.81515 10.327
head -0.0161308 -3.94601 4.51498
rclavicle -5.66536e-015 -1.11319e-014
rhumerus -20.0918 26.5322 -94.1242
rradius 34.3342
rwrist 17.4995
rhand 4.58588 -46.6087
rfingers 7.12502
rthumb 29.9749 -74.2006
lclavicle -5.66536e-015 -1.11319e-014
lhumerus -40.3172 21.3378 68.4608
lradius 33.253
lwrist -14.0438
lhand -2.26747 -33.663
lfingers 7.12502
lthumb 23.4168 -5.06772
rfemur -5.64645 -0.213132 27.2331
rtibia 51.6265
rfoot -36.3759 -24.7459
rtoes -3.79781
lfemur -32.6014 -16.793 2.47829
ltibia 51.0981
lfoot -21.0274 5.91677
ltoes -42.0287
